<svg xmlns="http://www.w3.org/2000/svg" width="192" height="192" viewBox="0 0 192 192">
  <rect width="192" height="192" rx="32" fill="#00a884"/>
  <g transform="translate(36,36)">
    <path d="M60 0c33.1 0 60 26.9 60 60 0 13.3-4.3 25.7-11.7 35.8L120 120l-25.3-10.6C83.7 117.3 72.1 120 60 120 26.9 120 0 93.1 0 60S26.9 0 60 0zm0 10C30.1 10 10 30.1 10 60s20.1 50 50 50c11.8 0 22.9-4.1 31.6-11l2-1.7 14.9 6.3-6.3-14.9 1.7-2c6.9-8.7 11-19.8 11-31.6 0-29.9-20.1-50-50-50z" fill="#fff" fill-rule="nonzero"/>
    <path d="M45 35c-1.4-3.1-2.8-3.2-4.1-3.3-1.1 0-2.3 0-3.5 0-1.2 0-3.2.5-4.9 2.3-1.7 1.9-6.4 6.3-6.4 15.3s6.6 17.7 7.5 18.9c.9 1.2 12.9 20.5 31.5 27.9 15.6 6.2 18.7 5 22.1 4.7 3.4-.3 10.9-4.5 12.4-8.8 1.6-4.3 1.6-8 1.1-8.8-.5-.8-1.8-1.3-3.8-2.3s-11.7-5.8-13.5-6.5c-1.8-.7-3.1-1-4.5 1-1.4 2-5.2 6.5-6.4 7.8-1.2 1.3-2.4 1.5-4.4.5s-8.7-3.2-16.5-10.2c-6.1-5.4-10.2-12.1-11.4-14.1-1.2-2-.1-3.1.9-4.1.9-.9 2-2.3 3-3.5s1.3-2 .7-3.4c-.5-1.3-4.5-11-6.3-15z" fill="#fff"/>
  </g>
</svg>
